<?xml version="1.0" encoding="UTF-8" standalone="no"?>
<svg
   xmlns:dc="http://purl.org/dc/elements/1.1/"
   xmlns:cc="http://creativecommons.org/ns#"
   xmlns:rdf="http://www.w3.org/1999/02/22-rdf-syntax-ns#"
   xmlns:svg="http://www.w3.org/2000/svg"
   xmlns="http://www.w3.org/2000/svg"
   xmlns:sodipodi="http://sodipodi.sourceforge.net/DTD/sodipodi-0.dtd"
   xmlns:inkscape="http://www.inkscape.org/namespaces/inkscape"
   version="1.0"
   x="0px"
   y="0px"
   viewBox="0 0 125 110"
   enable-background="new 0 0 50 50"
   xml:space="preserve"
   id="svg2"
   inkscape:version="0.91 r13725"
   sodipodi:docname="rover_black.svg"
   width="125"
   height="110"><metadata
     id="metadata16"><rdf:RDF><cc:Work
         rdf:about=""><dc:format>image/svg+xml</dc:format><dc:type
           rdf:resource="http://purl.org/dc/dcmitype/StillImage" /><dc:title /></cc:Work></rdf:RDF></metadata><defs
     id="defs14" /><sodipodi:namedview
     pagecolor="#ffffff"
     bordercolor="#666666"
     borderopacity="1"
     objecttolerance="10"
     gridtolerance="10"
     guidetolerance="10"
     inkscape:pageopacity="0"
     inkscape:pageshadow="2"
     inkscape:window-width="1366"
     inkscape:window-height="712"
     id="namedview12"
     showgrid="false"
     inkscape:zoom="3.776"
     inkscape:cx="-9.9350075"
     inkscape:cy="57.714634"
     inkscape:window-x="0"
     inkscape:window-y="30"
     inkscape:window-maximized="1"
     inkscape:current-layer="svg2"
     fit-margin-top="0"
     fit-margin-left="0"
     fit-margin-right="0"
     fit-margin-bottom="0" /><g
     id="g4"
     transform="matrix(2.6723709,0,0,2.6723709,-4.059708,-11.314101)"
     style="fill:#444444;fill-opacity:1;stroke:#444444;stroke-width:0.56171817;stroke-linecap:butt;stroke-linejoin:miter;stroke-miterlimit:4;stroke-dasharray:none;stroke-opacity:1"><path
       d="m 43.4,32.4 0,-3.8 c 0,-0.7 -0.6,-1.2 -1.2,-1.2 l -9.2,0 -4.2,-4.2 0,-2.2 2.3,-2.3 c 1.5,1.1 3.2,1.7 5.1,1.7 2.3,0 4.4,-0.9 6.1,-2.5 0.5,-0.5 0.5,-1.3 0,-1.8 L 38,11.8 40.3,9.5 C 40.8,9 40.8,8.2 40.3,7.7 39.8,7.2 39,7.2 38.5,7.7 L 36.2,10 31.9,5.7 c -0.5,-0.5 -1.3,-0.5 -1.8,0 -1.6,1.6 -2.5,3.8 -2.5,6.1 0,1.9 0.6,3.6 1.7,5.1 l -2.7,2.7 c -0.2,0.2 -0.4,0.6 -0.4,0.9 l 0,2.7 -4.2,4.2 -8,0 0,-2.4 8.5,0 c 0.7,0 1.2,-0.6 1.2,-1.2 l 0,-4.9 c 0,-0.7 -0.6,-1.2 -1.2,-1.2 L 3,17.7 c -0.7,0 -1.2,0.6 -1.2,1.2 l 0,4.9 C 1.8,24.5 2.3,25 3,25 l 8.5,0 0,3.6 0,3.8 c -2.8,0.6 -4.9,3.1 -4.9,6 0,3.4 2.8,6.1 6.1,6.1 3.4,0 6.1,-2.8 6.1,-6.1 0,-1.4 -0.5,-2.6 -1.2,-3.6 l 4.8,0 c -0.8,1 -1.2,2.3 -1.2,3.6 0,3.4 2.8,6.1 6.1,6.1 3.4,0 6.1,-2.8 6.1,-6.1 0,-1.4 -0.5,-2.6 -1.2,-3.6 l 4.8,0 c -0.8,1 -1.2,2.3 -1.2,3.6 0,3.4 2.8,6.1 6.1,6.1 3.4,0 6.1,-2.8 6.1,-6.1 0.2,-2.9 -1.9,-5.4 -4.6,-6 z M 31,8.5 l 4.2,4.2 0,0 0,0 4.2,4.2 c -1,0.6 -2.1,1 -3.3,1 -1.6,0 -3.2,-0.6 -4.3,-1.8 C 30.7,15 30,13.5 30,11.9 30,10.7 30.4,9.5 31,8.5 Z m -26.8,11.6 17.1,0 0,2.4 -17.1,0 0,-2.4 z m 36.7,12.2 -26.9,0 0,-2.4 8.5,0 9.9,0 0,0 8.5,0 0,2.4 z m -13.5,-6.8 1.9,1.9 -3.8,0 1.9,-1.9 z m -11,12.9 c 0,2 -1.6,3.6 -3.6,3.6 -2,0 -3.6,-1.6 -3.6,-3.6 0,-2 1.6,-3.6 3.6,-3.6 2,0 3.6,1.6 3.6,3.6 z m 14.7,0 c 0,2 -1.6,3.6 -3.6,3.6 -2,0 -3.6,-1.6 -3.6,-3.6 0,-2 1.6,-3.6 3.6,-3.6 2,0 3.6,1.6 3.6,3.6 z m 11,3.7 c -2,0 -3.6,-1.6 -3.6,-3.6 0,-2 1.6,-3.6 3.6,-3.6 2,0 3.6,1.6 3.6,3.6 0.1,1.9 -1.6,3.6 -3.6,3.6 z"
       id="path6"
       inkscape:connector-curvature="0"
       style="fill:#444444;fill-opacity:1;stroke:#444444;stroke-width:0.56171817;stroke-linecap:butt;stroke-linejoin:miter;stroke-miterlimit:4;stroke-dasharray:none;stroke-opacity:1" /></g></svg>