<?xml version="1.0" encoding="UTF-8" standalone="no"?>
<svg
   xmlns:dc="http://purl.org/dc/elements/1.1/"
   xmlns:cc="http://creativecommons.org/ns#"
   xmlns:rdf="http://www.w3.org/1999/02/22-rdf-syntax-ns#"
   xmlns:svg="http://www.w3.org/2000/svg"
   xmlns="http://www.w3.org/2000/svg"
   xmlns:sodipodi="http://sodipodi.sourceforge.net/DTD/sodipodi-0.dtd"
   xmlns:inkscape="http://www.inkscape.org/namespaces/inkscape"
   version="1.1"
   x="0px"
   y="0px"
   viewBox="0 0 100 125"
   enable-background="new 0 0 100 100"
   xml:space="preserve"
   id="svg2"
   inkscape:version="0.91 r13725"
   sodipodi:docname="rover.svg"><metadata
     id="metadata14"><rdf:RDF><cc:Work
         rdf:about=""><dc:format>image/svg+xml</dc:format><dc:type
           rdf:resource="http://purl.org/dc/dcmitype/StillImage" /></cc:Work></rdf:RDF></metadata><defs
     id="defs12" /><sodipodi:namedview
     pagecolor="#ffffff"
     bordercolor="#666666"
     borderopacity="1"
     objecttolerance="10"
     gridtolerance="10"
     guidetolerance="10"
     inkscape:pageopacity="0"
     inkscape:pageshadow="2"
     inkscape:window-width="640"
     inkscape:window-height="480"
     id="namedview10"
     showgrid="false"
     inkscape:zoom="1.888"
     inkscape:cx="50"
     inkscape:cy="62.5"
     inkscape:window-x="0"
     inkscape:window-y="30"
     inkscape:window-maximized="0"
     inkscape:current-layer="svg2" /><path
     fill="#000000"
     d="M92.562,46.349c-0.391-0.391-1.023-0.391-1.414,0l-3.742,3.743l-1.689,0.017l0.018-1.69l3.742-3.742  c0.391-0.391,0.391-1.023,0-1.414s-1.023-0.391-1.414,0l-4.03,4.03c-0.185,0.185-0.29,0.435-0.293,0.696l-0.028,2.654  c-0.001,0.091,0.027,0.173,0.049,0.256l-6.89,6.135c-0.38-0.217-0.812-0.351-1.28-0.351c-0.799,0-1.506,0.37-1.983,0.938  l-9.487-2.512v-5.827c0-0.552-0.447-1-1-1h-7.335c-0.346-1.976-1.865-3.552-3.82-3.959V32.422h4.505c0.553,0,1-0.448,1-1v-7.409  c0-0.552-0.447-1-1-1h-11.01c-0.552,0-1,0.448-1,1v7.409c0,0.552,0.448,1,1,1h4.505v11.903c-1.955,0.407-3.475,1.982-3.82,3.958  h-1.309v-2.357c0-0.552-0.448-1-1-1h-0.938v-4.918c0-0.036-0.017-0.066-0.021-0.101c-0.003-0.03,0.008-0.061,0.002-0.091  c-0.853-4.37-1.485-6.352-1.914-7.291c-0.109-0.338-0.277-0.576-0.445-0.742c-0.062-0.067-0.114-0.11-0.152-0.14  c0,0-0.001-0.001-0.001-0.001c-0.312-0.243-0.705-0.372-1.136-0.372c-1.296,0-2.775,1.134-3.926,2.396l-1.157-0.916  c-0.432-0.342-1.062-0.27-1.405,0.164c-0.343,0.433-0.27,1.062,0.164,1.405l1.164,0.921c-1.027,1.539-1.572,3.071-1.438,4.141  c0.087,0.694,0.425,1.088,0.691,1.294c0,0,0.001,0,0.001,0.001c0.066,0.052,0.169,0.129,0.395,0.209  c0.127,0.054,0.263,0.086,0.404,0.111c0.533,0.113,1.431,0.207,2.985,0.207c0.974,0,2.225-0.04,3.787-0.132v3.854h-7.213  c-0.552,0-1,0.448-1,1v2.357h-2.118l-1.334-3.997c-0.014-0.042-0.041-0.077-0.061-0.116c-0.011-0.023-0.011-0.048-0.023-0.07  l-1.445-2.487c0.926-0.385,1.58-1.299,1.58-2.363v-4.484c0-1.411-1.148-2.56-2.56-2.56h-1.286c-1.411,0-2.56,1.148-2.56,2.56v4.484  c0,1.049,0.636,1.951,1.542,2.346l-1.205,1.953l-4.279-3.377c-0.832-0.657-2.042-0.514-2.698,0.318l-3.99,5.059  c-0.656,0.829-0.514,2.039,0.319,2.699l9.483,7.479c0.206,0.163,0.443,0.263,0.689,0.329v1.188l-0.768-0.257  c-0.346-1.031-1.311-1.781-2.458-1.781c-1.434,0-2.601,1.167-2.601,2.601c0,1.081,0.663,2.009,1.603,2.401v7.283  c-0.784,0.148-1.502,0.472-2.126,0.922c-0.232-0.326-0.595-0.554-1.027-0.554c-0.708,0-1.282,0.574-1.282,1.282  c0,0.499,0.292,0.919,0.708,1.131c-0.186,0.353-0.335,0.725-0.439,1.118c-0.089-0.021-0.173-0.055-0.269-0.055  c-0.708,0-1.282,0.574-1.282,1.282c0,0.709,0.574,1.282,1.282,1.282c0.067,0,0.125-0.028,0.19-0.038  c0.11,0.521,0.314,1.002,0.564,1.456c-0.339,0.23-0.577,0.601-0.577,1.042c0,0.709,0.574,1.282,1.282,1.282  c0.39,0,0.727-0.183,0.962-0.457c0.434,0.296,0.923,0.508,1.436,0.666c-0.005,0.048-0.027,0.088-0.027,0.137  c0,0.709,0.574,1.282,1.282,1.282c0.697,0,1.258-0.558,1.276-1.251c0.674-0.121,1.299-0.372,1.861-0.722  c0.229,0.21,0.526,0.345,0.86,0.345c0.709,0,1.283-0.573,1.283-1.282c0-0.346-0.14-0.656-0.362-0.887  c0.29-0.486,0.517-1.013,0.64-1.582c0.016,0,0.029,0.009,0.045,0.009c0.708,0,1.282-0.573,1.282-1.282  c0-0.708-0.574-1.282-1.282-1.282c-0.044,0-0.081,0.021-0.124,0.025c-0.111-0.411-0.271-0.799-0.472-1.164  c0.35-0.229,0.596-0.605,0.596-1.056c0-0.708-0.574-1.282-1.282-1.282c-0.396,0-0.737,0.19-0.972,0.473  c-0.6-0.412-1.286-0.7-2.026-0.841v-7.284c0.55-0.23,0.995-0.65,1.277-1.171l0.946,0.315v2.95c0,0.553,0.448,1,1,1h10.705  c0.345,1.033,1.31,1.785,2.457,1.785c0.454,0,0.875-0.127,1.248-0.333l4.288,1.949v0.788c-0.762,0.145-1.464,0.45-2.076,0.881  c-0.234-0.304-0.585-0.513-0.999-0.513c-0.708,0-1.282,0.574-1.282,1.282c0,0.475,0.269,0.871,0.651,1.093  c-0.193,0.359-0.348,0.738-0.456,1.141c-0.066-0.01-0.126-0.039-0.196-0.039c-0.708,0-1.282,0.574-1.282,1.282  c0,0.709,0.574,1.282,1.282,1.282c0.042,0,0.077-0.02,0.117-0.023c0.113,0.53,0.323,1.02,0.581,1.479  c-0.308,0.234-0.52,0.587-0.52,1.004c0,0.709,0.574,1.282,1.282,1.282c0.375,0,0.704-0.167,0.939-0.423  c0.441,0.293,0.935,0.502,1.454,0.655c-0.003,0.039-0.023,0.073-0.023,0.113c0,0.709,0.574,1.282,1.282,1.282  c0.7,0,1.264-0.562,1.277-1.259c0.662-0.13,1.274-0.388,1.825-0.737c0.231,0.227,0.546,0.368,0.895,0.368  c0.709,0,1.283-0.573,1.283-1.282c0-0.371-0.163-0.698-0.414-0.933c0.278-0.479,0.5-0.994,0.619-1.551  c0.041,0.004,0.076,0.023,0.118,0.023c0.708,0,1.282-0.573,1.282-1.282c0-0.708-0.574-1.282-1.282-1.282  c-0.069,0-0.13,0.029-0.197,0.04c-0.107-0.402-0.262-0.781-0.455-1.141c0.383-0.222,0.652-0.619,0.652-1.094  c0-0.708-0.574-1.282-1.282-1.282c-0.414,0-0.765,0.209-1,0.514c-0.612-0.432-1.314-0.737-2.077-0.882V66.06  c0-0.393-0.229-0.748-0.586-0.91l-4.064-1.848h23.333c0.444,0,0.809-0.294,0.938-0.695l0.89,0.235  c0.128,0.923,0.731,1.695,1.564,2.044v2.605c-0.783,0.148-1.501,0.472-2.125,0.922c-0.232-0.327-0.595-0.554-1.026-0.554  c-0.708,0-1.282,0.574-1.282,1.282c0,0.499,0.293,0.919,0.708,1.131c-0.186,0.353-0.335,0.724-0.439,1.118  c-0.09-0.021-0.173-0.055-0.269-0.055c-0.708,0-1.282,0.574-1.282,1.282c0,0.709,0.574,1.282,1.282,1.282  c0.067,0,0.125-0.028,0.189-0.038c0.11,0.521,0.314,1.002,0.564,1.456c-0.339,0.23-0.576,0.601-0.576,1.042  c0,0.709,0.574,1.282,1.282,1.282c0.39,0,0.727-0.183,0.962-0.457c0.434,0.297,0.923,0.508,1.436,0.667  c-0.005,0.047-0.027,0.088-0.027,0.136c0,0.709,0.574,1.282,1.282,1.282c0.697,0,1.258-0.558,1.275-1.251  c0.675-0.122,1.3-0.373,1.861-0.722c0.228,0.21,0.526,0.345,0.86,0.345c0.709,0,1.283-0.573,1.283-1.282  c0-0.346-0.14-0.656-0.362-0.887c0.289-0.486,0.517-1.013,0.64-1.582c0.017,0,0.03,0.009,0.046,0.009  c0.708,0,1.282-0.573,1.282-1.282c0-0.708-0.574-1.282-1.282-1.282c-0.044,0-0.081,0.021-0.124,0.025  c-0.111-0.411-0.271-0.799-0.472-1.164c0.351-0.229,0.596-0.605,0.596-1.056c0-0.708-0.574-1.282-1.282-1.282  c-0.396,0-0.737,0.19-0.972,0.473c-0.601-0.412-1.287-0.701-2.028-0.841v-2.605c0.939-0.393,1.603-1.32,1.603-2.399  c0-1.434-1.168-2.601-2.603-2.601c-0.838,0-1.576,0.405-2.053,1.022l-1.34-0.354V57.18l8.895,2.354  c0.128,1.315,1.228,2.352,2.576,2.352c1.435,0,2.603-1.167,2.603-2.602c0-0.23-0.04-0.45-0.097-0.663l7.311-6.509l2.43-0.025  c0.262-0.003,0.512-0.108,0.696-0.293l4.03-4.031C92.952,47.372,92.952,46.739,92.562,46.349z M50.963,26.378  c0.785,0,1.425,0.639,1.425,1.425c0,0.786-0.64,1.426-1.425,1.426s-1.425-0.64-1.425-1.426  C49.538,27.017,50.178,26.378,50.963,26.378z M55.468,30.422h-2.324c0.754-0.629,1.244-1.563,1.244-2.619  c0-1.153-0.576-2.169-1.452-2.79h2.532V30.422z M46.458,25.013h2.532c-0.876,0.621-1.452,1.637-1.452,2.79  c0,1.056,0.49,1.99,1.244,2.619h-2.324V25.013z M35.763,36.582c0.184,0.146,0.402,0.216,0.62,0.216c0.295,0,0.587-0.13,0.785-0.379  c0.343-0.433,0.27-1.062-0.164-1.405l-0.13-0.103c0.916-0.98,1.757-1.51,2.209-1.619c-0.002,0.493-0.386,1.782-1.614,3.355  c-1.157,1.489-2.315,2.255-2.863,2.383c0.001-0.403,0.268-1.348,1.039-2.542L35.763,36.582z M37.874,39.185  c0.428-0.418,0.83-0.865,1.173-1.308c0.394-0.504,0.731-1.016,1.019-1.52c0.212,0.855,0.426,1.793,0.621,2.723  C39.731,39.132,38.762,39.168,37.874,39.185z M19.513,57.206c0.332,0,0.603,0.27,0.603,0.601c0,0.332-0.271,0.602-0.603,0.602  c-0.331,0-0.601-0.27-0.601-0.602C18.912,57.476,19.182,57.206,19.513,57.206z M22.877,72.753c0,1.854-1.508,3.363-3.362,3.363  c-1.855,0-3.364-1.509-3.364-3.363c0-1.504,1-2.766,2.364-3.194v3.194c0,0.553,0.448,1,1,1s1-0.447,1-1v-3.194  C21.878,69.987,22.877,71.249,22.877,72.753z M46.799,72.753c0,1.854-1.509,3.363-3.363,3.363s-3.363-1.509-3.363-3.363  c0-1.504,0.999-2.766,2.363-3.194v3.194c0,0.553,0.448,1,1,1s1-0.447,1-1v-3.194C45.8,69.987,46.799,71.249,46.799,72.753z   M50.963,46.221c1.307,0,2.402,0.873,2.766,2.062h-5.531C48.561,47.094,49.656,46.221,50.963,46.221z M34.683,46.926h8.151v1.357  h-8.151V46.926z M26.545,43.604h-1.014l0.522-0.847L26.545,43.604z M24.877,34.767c0-0.309,0.251-0.56,0.56-0.56h1.286  c0.309,0,0.56,0.251,0.56,0.56v4.484c0,0.309-0.251,0.56-0.56,0.56h-1.286c-0.309,0-0.56-0.251-0.56-0.56V34.767z M13.865,46.726  l3.892-4.935l4.89,3.859c0.028,0.022,0.062,0.027,0.091,0.046v0.937l-3.943-3.11c-0.432-0.342-1.062-0.268-1.404,0.166  c-0.342,0.434-0.268,1.062,0.166,1.404l5.182,4.086v1.085l-5.863-4.625c-0.433-0.341-1.062-0.269-1.404,0.166  c-0.342,0.434-0.268,1.062,0.166,1.404l7.01,5.529c0.028,0.022,0.062,0.031,0.092,0.05v0.935L13.865,46.726z M24.738,60.019  l3.85,1.283h-3.85V60.019z M36.9,63.087c-0.331,0-0.601-0.27-0.601-0.601s0.27-0.601,0.601-0.601c0.332,0,0.603,0.27,0.603,0.601  S37.232,63.087,36.9,63.087z M42.431,61.302l5.648-1.769c0.478,0.565,1.183,0.934,1.979,0.934c0.838,0,1.577-0.405,2.054-1.022  l7.017,1.857H42.431z M49.457,57.866c0-0.331,0.27-0.601,0.601-0.601c0.332,0,0.603,0.27,0.603,0.601s-0.271,0.601-0.603,0.601  C49.727,58.467,49.457,58.197,49.457,57.866z M70.875,72.753c0,1.854-1.509,3.363-3.364,3.363c-1.854,0-3.362-1.509-3.362-3.363  c0-1.504,0.999-2.766,2.362-3.194v3.194c0,0.553,0.447,1,1,1s1-0.447,1-1v-3.194C69.876,69.987,70.875,71.249,70.875,72.753z   M67.511,61.886c0.332,0,0.603,0.27,0.603,0.601s-0.271,0.601-0.603,0.601c-0.331,0-0.601-0.27-0.601-0.601  S67.18,61.886,67.511,61.886z M62.118,60.024l-9.494-2.513c-0.175-1.266-1.254-2.246-2.566-2.246c-1.351,0-2.452,1.04-2.576,2.359  l-8.993,2.815c-0.441-0.342-0.987-0.555-1.588-0.555c-0.97,0-1.807,0.54-2.254,1.329l-9.908-3.305V45.604h2.824l1.334,3.997  c0.136,0.408,0.519,0.683,0.949,0.683h3.838h7.193v2.326c0,1.23-1.274,1.351-1.652,1.358H37.9v-0.45c0-1.411-1.148-2.56-2.56-2.56  h-3.546c-1.411,0-2.56,1.148-2.56,2.56v2.729c0,1.411,1.148,2.56,2.56,2.56h3.546c1.411,0,2.56-1.148,2.56-2.56v-0.279h1.329  c1.466-0.009,3.646-0.91,3.646-3.358v-2.326h0.958h18.284v4.298l-1.448-0.384c-0.009-1.428-1.172-2.588-2.602-2.588  c-1.434,0-2.601,1.168-2.601,2.603c0,1.434,1.167,2.6,2.601,2.6c0.711,0,1.354-0.287,1.825-0.75l2.225,0.589V60.024z M35.9,54.614  c-0.042,0.11-0.071,0.229-0.071,0.354s0.029,0.243,0.071,0.354v0.926c0,0.309-0.251,0.56-0.56,0.56h-3.546  c-0.309,0-0.56-0.251-0.56-0.56v-2.729c0-0.309,0.251-0.56,0.56-0.56h3.546c0.309,0,0.56,0.251,0.56,0.56V54.614z M58.671,54.212  c0,0.331-0.271,0.6-0.603,0.6c-0.331,0-0.601-0.269-0.601-0.6c0-0.332,0.27-0.603,0.601-0.603  C58.4,53.609,58.671,53.88,58.671,54.212z M75.589,59.886c-0.332,0-0.602-0.27-0.602-0.602c0-0.331,0.27-0.601,0.602-0.601  s0.603,0.27,0.603,0.601C76.191,59.616,75.921,59.886,75.589,59.886z"
     id="path4" /></svg>