<?xml version="1.0" encoding="UTF-8" standalone="no"?>
<svg
   xmlns:dc="http://purl.org/dc/elements/1.1/"
   xmlns:cc="http://creativecommons.org/ns#"
   xmlns:rdf="http://www.w3.org/1999/02/22-rdf-syntax-ns#"
   xmlns:svg="http://www.w3.org/2000/svg"
   xmlns="http://www.w3.org/2000/svg"
   xmlns:sodipodi="http://sodipodi.sourceforge.net/DTD/sodipodi-0.dtd"
   xmlns:inkscape="http://www.inkscape.org/namespaces/inkscape"
   version="1.1"
   x="0px"
   y="0px"
   viewBox="0 0 1200 1500"
   enable-background="new 0 0 1200 1200"
   xml:space="preserve"
   id="svg2"
   inkscape:version="0.91 r13725"
   sodipodi:docname="rover1.svg"><metadata
     id="metadata24"><rdf:RDF><cc:Work
         rdf:about=""><dc:format>image/svg+xml</dc:format><dc:type
           rdf:resource="http://purl.org/dc/dcmitype/StillImage" /></cc:Work></rdf:RDF></metadata><defs
     id="defs22" /><sodipodi:namedview
     pagecolor="#ffffff"
     bordercolor="#666666"
     borderopacity="1"
     objecttolerance="10"
     gridtolerance="10"
     guidetolerance="10"
     inkscape:pageopacity="0"
     inkscape:pageshadow="2"
     inkscape:window-width="640"
     inkscape:window-height="480"
     id="namedview20"
     showgrid="false"
     inkscape:zoom="0.31466667"
     inkscape:cx="377.81648"
     inkscape:cy="538.24186"
     inkscape:window-x="0"
     inkscape:window-y="30"
     inkscape:window-maximized="0"
     inkscape:current-layer="svg2" /><g
     id="g4"><path
       d="M267.7,229.9c0.4,0,0.9,0,1.3-0.1c3.8-0.7,6.3-4.4,5.6-8.2c-0.8-4.1,0.1-8.2,2.4-11.6c2.3-3.4,5.9-5.7,9.9-6.4   c3.8-0.7,6.3-4.4,5.6-8.2s-4.3-6.3-8.2-5.6c-7.7,1.4-14.4,5.8-18.9,12.3c-4.5,6.5-6.1,14.3-4.7,22   C261.5,227.6,264.4,229.9,267.7,229.9z"
       id="path6" /><path
       d="M1027.5,530.9c36.7,0,66.5-29.8,66.5-66.5c0-34.2-26-62.5-59.3-66.1L862.3,175.8c1.4-3.3,2.1-6.9,2.1-10.7   c0-15.5-12.6-28.1-28.1-28.1s-28.1,12.6-28.1,28.1c0,7,2.6,13.2,6.8,18.2L694.4,523.7h-50.6v51.5H513.6V467.9h-14v-154h40.6   c25.7,48.5,74.5,81.7,130.2,86.9l21.6,2L588.3,102.9l-15.8,15c-45.5,43.1-62.3,108.6-43.9,168h-57v182h-14v107.3H345.1V409h-18.4   V297h65V140.6H187.8V297h65v112h-18.4v166.2h-98.1c-7.7,0-14,6.3-14,14v50.3c0,7.7,6.3,14,14,14h29.3l94.8,93l-29.3,92.2   c-69.2,3.1-124.5,60.2-124.5,130.1c0,71.9,58.5,130.4,130.4,130.4s130.4-58.5,130.4-130.4c0-64.1-46.5-117.4-107.5-128.3l26.7-84   h463v26.7H574v55.9c-65.4,7-116.4,62.5-116.4,129.7c0,71.9,58.5,130.4,130.4,130.4c71.9,0,130.4-58.5,130.4-130.4   c0-67.2-51.1-122.6-116.4-129.7v-27.9h323.1v27.9c-65.4,7-116.4,62.5-116.4,129.7c0,71.9,58.5,130.4,130.4,130.4   s130.4-58.5,130.4-130.4c0-67.2-51.1-122.6-116.4-129.7v-55.9H777.6v-26.7h117l105-103.1h29.3c7.7,0,14-6.3,14-14v-50.3   c0-7.7-6.3-14-14-14H827.9l-26.7-51.5h-77.1l116.8-329.7l172.6,222.8v114.2H1027.5z M1041.5,428.5c14.3,5.6,24.5,19.6,24.5,35.9   s-10.2,30.3-24.5,35.9V428.5z M576.7,155.1l74,213.9c-43.4-11.5-79.1-44-94.1-87.2C541.7,238.6,549.7,191,576.7,155.1z    M311.4,968.8c0,41-33.4,74.4-74.4,74.4s-74.4-33.4-74.4-74.4s33.4-74.4,74.4-74.4S311.4,927.8,311.4,968.8z M662.5,968.8   c0,41-33.4,74.4-74.4,74.4s-74.4-33.4-74.4-74.4s33.4-74.4,74.4-74.4S662.5,927.8,662.5,968.8z M1013.5,968.8   c0,41-33.4,74.4-74.4,74.4s-74.4-33.4-74.4-74.4s33.4-74.4,74.4-74.4S1013.5,927.8,1013.5,968.8z M289.8,179.1   c21.9,0,39.7,17.8,39.7,39.7s-17.8,39.7-39.7,39.7s-39.7-17.8-39.7-39.7S267.9,179.1,289.8,179.1z M298.8,297v112h-18V297H298.8z    M317.1,437v138.2h-54.7V437H317.1z M959.6,653.4l-76.5,75.1H282l-76.5-75.1H959.6z M784.2,551.7l12.2,23.5H671.9v-23.5H784.2z"
       id="path8" /><path
       d="M230,907.8v21.3l-23.9,13.8l-18.5-10.7c-3.4-1.9-7.6-0.8-9.6,2.6c-1.9,3.3-0.8,7.6,2.6,9.6l18.5,10.7v27.5l-18.5,10.7   c-3.3,1.9-4.5,6.2-2.6,9.6c1.3,2.2,3.7,3.5,6.1,3.5c1.2,0,2.4-0.3,3.5-0.9l18.5-10.7l23.9,13.8v21.3c0,3.9,3.1,7,7,7s7-3.1,7-7   v-21.3l23.9-13.8l18.5,10.7c1.1,0.6,2.3,0.9,3.5,0.9c2.4,0,4.8-1.3,6.1-3.5c1.9-3.3,0.8-7.6-2.6-9.6l-18.5-10.7v-27.5l18.5-10.7   c3.3-1.9,4.5-6.2,2.6-9.6c-1.9-3.3-6.2-4.5-9.6-2.6l-18.5,10.7L244,929.2v-21.3c0-3.9-3.1-7-7-7S230,904,230,907.8z M246.8,963.1   v11.4l-9.9,5.7l-9.9-5.7v-11.4l9.9-5.7L246.8,963.1z"
       id="path10" /><path
       d="M581,907.8v21.3l-23.9,13.8l-18.5-10.7c-3.4-1.9-7.6-0.8-9.6,2.6c-1.9,3.3-0.8,7.6,2.6,9.6l18.5,10.7v27.5l-18.5,10.7   c-3.3,1.9-4.5,6.2-2.6,9.6c1.3,2.2,3.7,3.5,6.1,3.5c1.2,0,2.4-0.3,3.5-0.9l18.5-10.7l23.9,13.8v21.3c0,3.9,3.1,7,7,7s7-3.1,7-7   v-21.3l23.9-13.8l18.5,10.7c1.1,0.6,2.3,0.9,3.5,0.9c2.4,0,4.8-1.3,6.1-3.5c1.9-3.3,0.8-7.6-2.6-9.6l-18.5-10.7v-27.5l18.5-10.7   c3.3-1.9,4.5-6.2,2.6-9.6c-1.9-3.3-6.2-4.5-9.6-2.6l-18.5,10.7L595,929.2v-21.3c0-3.9-3.1-7-7-7S581,904,581,907.8z M597.9,963.1   v11.4l-9.9,5.7l-9.9-5.7v-11.4l9.9-5.7L597.9,963.1z"
       id="path12" /><path
       d="M880.2,934.8c-1.9,3.3-0.8,7.6,2.6,9.6l18.5,10.7v27.5l-18.5,10.7c-3.3,1.9-4.5,6.2-2.6,9.6c1.3,2.2,3.7,3.5,6.1,3.5   c1.2,0,2.4-0.3,3.5-0.9l18.5-10.7l23.9,13.8v21.3c0,3.9,3.1,7,7,7s7-3.1,7-7v-21.3l23.9-13.8l18.5,10.7c1.1,0.6,2.3,0.9,3.5,0.9   c2.4,0,4.8-1.3,6.1-3.5c1.9-3.3,0.8-7.6-2.6-9.6l-18.5-10.7v-27.5l18.5-10.7c3.3-1.9,4.5-6.2,2.6-9.6c-1.9-3.3-6.2-4.5-9.6-2.6   l-18.5,10.7l-23.9-13.8v-21.3c0-3.9-3.1-7-7-7s-7,3.1-7,7v21.3l-23.9,13.8l-18.5-10.7C886.4,930.3,882.1,931.5,880.2,934.8z    M929.2,963.1l9.9-5.7l9.9,5.7v11.4l-9.9,5.7l-9.9-5.7V963.1z"
       id="path14" /></g></svg>