<?xml version="1.0" encoding="UTF-8" standalone="no"?>
<svg
   xmlns:dc="http://purl.org/dc/elements/1.1/"
   xmlns:cc="http://creativecommons.org/ns#"
   xmlns:rdf="http://www.w3.org/1999/02/22-rdf-syntax-ns#"
   xmlns:svg="http://www.w3.org/2000/svg"
   xmlns="http://www.w3.org/2000/svg"
   xmlns:sodipodi="http://sodipodi.sourceforge.net/DTD/sodipodi-0.dtd"
   xmlns:inkscape="http://www.inkscape.org/namespaces/inkscape"
   version="1.1"
   x="0px"
   y="0px"
   viewBox="0 0 125 100"
   id="svg2"
   inkscape:version="0.91 r13725"
   sodipodi:docname="newsw.svg"
   width="125"
   height="100">
  <metadata
     id="metadata16">
    <rdf:RDF>
      <cc:Work
         rdf:about="">
        <dc:format>image/svg+xml</dc:format>
        <dc:type
           rdf:resource="http://purl.org/dc/dcmitype/StillImage" />
        <dc:title></dc:title>
      </cc:Work>
    </rdf:RDF>
  </metadata>
  <defs
     id="defs14" />
  <sodipodi:namedview
     pagecolor="#ffffff"
     bordercolor="#666666"
     borderopacity="1"
     objecttolerance="10"
     gridtolerance="10"
     guidetolerance="10"
     inkscape:pageopacity="0"
     inkscape:pageshadow="2"
     inkscape:window-width="1366"
     inkscape:window-height="712"
     id="namedview12"
     showgrid="false"
     inkscape:zoom="1.888"
     inkscape:cx="50"
     inkscape:cy="62.5"
     inkscape:window-x="0"
     inkscape:window-y="30"
     inkscape:window-maximized="1"
     inkscape:current-layer="svg2" />
  <g
     transform="matrix(1.2582778,0,0,1.2582778,-1.0458486,-1210.8687)"
     id="g4"
     style="fill:#666666;fill-opacity:1;stroke:#666666;stroke-width:1.5;stroke-miterlimit:4;stroke-dasharray:none;stroke-opacity:1">
    <path
       style="color:#000000;text-indent:0;text-transform:none;direction:ltr;block-progression:tb;baseline-shift:baseline;display:inline;overflow:visible;visibility:visible;fill:#666666;fill-opacity:1;stroke:#666666;stroke-width:1.5;stroke-miterlimit:4;stroke-dasharray:none;stroke-opacity:1;marker:none;enable-background:accumulate"
       d="m 26,965.36218 c -1.053841,0.034 -1.97542,1.0991 -2,2 l 0,18 -12,0 c -1.0819,0.025 -1.97542,1.0991 -2.0000005,2 l 0,43.00002 c 0,4.9514 4.0485905,9 9.0000005,9 l 62,0 c 4.951409,0 9,-4.0486 9,-9 l 0,-63.00002 c -1e-4,-1.0472 -0.95283,-1.9999 -2,-2 l -62,0 z m 2,4 58,0 0,61.00002 c 0,2.8046 -2.19541,5 -5,5 l -54.75,0 c 1.011629,-1.4551 1.75,-3.103 1.75,-5 l 0,-61.00002 z m 8,6 c -1.05876,0 -1.97542,1.0991 -2,2 l 0,14 c 1e-4,1.0472 0.952829,1.9999 2,2 l 20,0 c 1.047169,-10e-5 1.999899,-0.9528 2,-2 l 0,-14 c -1.01e-4,-1.0472 -0.952831,-1.9999 -2,-2 l -20,0 z m 30,2 c -1.10457,0 -2,0.8954 -2,2 0,1.1046 0.89543,2 2,2 l 12,0 c 1.104569,0 2,-0.8954 2,-2 0,-1.1046 -0.895431,-2 -2,-2 l -12,0 z m -28,2 16,0 0,10 -16,0 0,-10 z m 28,8 c -1.10457,0 -2,0.8954 -2,2 0,1.1046 0.89543,2 2,2 l 12,0 c 1.104569,0 2,-0.8954 2,-2 0,-1.1046 -0.895431,-2 -2,-2 l -12,0 z m -52,2 10,0 0,41.00002 c 0,2.8046 -2.195411,5 -5,5 -2.804591,0 -5,-2.1954 -5,-5 l 0,-41.00002 z m 22,10 c -1.104571,0 -2,0.89542 -2,2.00002 0,1.1046 0.895429,2 2,2 l 42,0 c 1.104569,0 2,-0.8954 2,-2 0,-1.1046 -0.895431,-2.00002 -2,-2.00002 l -42,0 z m 0,11.00002 c -1.104571,0 -2,0.8954 -2,2 0,1.1046 0.895429,2 2,2 l 42,0 c 1.104569,0 2,-0.8954 2,-2 0,-1.1046 -0.895431,-2 -2,-2 l -42,0 z m 0,11 c -1.104571,0 -2,0.8954 -2,2 0,1.1046 0.895429,2 2,2 l 42,0 c 1.104569,0 2,-0.8954 2,-2 0,-1.1046 -0.895431,-2 -2,-2 l -42,0 z"
       visibility="visible"
       display="inline"
       overflow="visible"
       id="path6"
       inkscape:connector-curvature="0" />
  </g>
</svg>
